<svg width="68" height="68" viewBox="0 0 68 68" fill="none" xmlns="http://www.w3.org/2000/svg">
<ellipse cx="33.5" cy="34.5" rx="32.5" ry="32.5" transform="rotate(-180 33.5 34.5)" fill="#636363"/>
<path d="M16.7704 27.6883C17.2638 27.2476 17.933 27 18.6307 27C19.3284 27 19.9976 27.2476 20.491 27.6883L33.5159 39.3254L46.5407 27.6883C47.037 27.2601 47.7017 27.0231 48.3916 27.0285C49.0815 27.0338 49.7415 27.2811 50.2293 27.717C50.7172 28.1528 50.9939 28.7425 50.9999 29.3589C51.0059 29.9753 50.7407 30.5691 50.2614 31.0125L35.3762 44.3117C34.8828 44.7524 34.2136 45 33.5159 45C32.8182 45 32.149 44.7524 31.6556 44.3117L16.7704 31.0125C16.2771 30.5717 16 29.9738 16 29.3504C16 28.727 16.2771 28.1292 16.7704 27.6883Z" fill="white"/>
</svg>
